<svg width="400" height="191" viewBox="0 0 400 191" fill="rgb(58, 77, 158)" xmlns="http://www.w3.org/2000/svg">
<path d="M39.3352 84.6932C45.8693 84.6932 50.8026 82.4716 53.8409 76.8523H54.233V83.9091H71.0909V49.5398C71.0909 40.2614 62.3026 33.0739 47.9602 33.0739C32.9645 33.0739 25.581 40.9148 24.9602 50.0625H41.5568C41.9815 46.9588 44.2685 45.4886 47.6989 45.4886C50.8352 45.4886 53.0568 46.9261 53.0568 49.5398V49.6705C53.0568 52.5781 49.8551 53.4929 41.4261 54.1136C31.0696 54.8651 23 59.0469 23 70.0568C23 80.054 29.7301 84.6932 39.3352 84.6932ZM45.2159 73.3239C42.1449 73.3239 39.9886 71.821 39.9886 69.0114C39.9886 66.4304 41.8182 64.4375 46 63.7841C48.875 63.3267 51.2926 62.7386 53.1875 61.9545V66.1364C53.1875 70.7102 49.2997 73.3239 45.2159 73.3239Z" />
<path d="M97.7745 83.9091H115.678V75.6761H116.07C118.161 80.7727 122.996 84.5625 130.053 84.5625C140.769 84.5625 149.786 76.1989 149.786 58.8182C149.786 40.6534 140.115 33.0739 130.184 33.0739C122.735 33.0739 118.03 37.3864 116.07 42.483H115.809V17H97.7745V83.9091ZM115.417 58.8182C115.417 51.3693 118.422 46.9261 123.388 46.9261C128.354 46.9261 131.229 51.3693 131.229 58.8182C131.229 66.267 128.354 70.7102 123.388 70.7102C118.422 70.7102 115.417 66.1364 115.417 58.8182Z" />
<path d="M181.378 84.8239C195.296 84.8239 204.248 78.1591 205.946 67.7045H189.48C188.435 70.5469 185.462 72.1477 181.77 72.1477C176.412 72.1477 173.276 68.6193 173.276 63.7841V63H205.946V58.8182C205.946 42.8423 196.145 33.0739 180.986 33.0739C165.435 33.0739 155.503 43.3977 155.503 58.9489C155.503 75.1861 165.304 84.8239 181.378 84.8239ZM173.276 53.0682C173.374 48.723 176.968 45.75 181.378 45.75C185.854 45.75 189.252 48.7557 189.35 53.0682H173.276Z" />
<path d="M243.232 33.7273H234.607V21.7045H216.572V33.7273H210.169V46.7955H216.572V69.4688C216.442 79.9886 222.943 85.3139 235.391 84.6278C239.474 84.3992 242.513 83.5497 244.146 83.0597L241.533 70.3835C240.847 70.5469 239.082 70.9062 238.004 70.9062C235.652 70.9062 234.607 69.8608 234.607 67.7699V46.7955H243.232V33.7273Z" />
<path d="M280.517 33.7273H271.892V21.7045H253.858V33.7273H247.454V46.7955H253.858V69.4688C253.727 79.9886 260.228 85.3139 272.676 84.6278C276.76 84.3992 279.798 83.5497 281.431 83.0597L278.818 70.3835C278.132 70.5469 276.368 70.9062 275.289 70.9062C272.937 70.9062 271.892 69.8608 271.892 67.7699V46.7955H280.517V33.7273Z" />
<path d="M311.382 84.8239C325.3 84.8239 334.251 78.1591 335.95 67.7045H319.484C318.439 70.5469 315.466 72.1477 311.774 72.1477C306.416 72.1477 303.28 68.6193 303.28 63.7841V63H335.95V58.8182C335.95 42.8423 326.149 33.0739 310.99 33.0739C295.439 33.0739 285.507 43.3977 285.507 58.9489C285.507 75.1861 295.308 84.8239 311.382 84.8239ZM303.28 53.0682C303.378 48.723 306.972 45.75 311.382 45.75C315.858 45.75 319.256 48.7557 319.354 53.0682H303.28Z" />
<path d="M343.309 83.9091H361.343V57.7727C361.343 52.0227 365.297 48.233 370.622 48.233C372.484 48.233 375.49 48.527 377.287 49.1477V33.7599C375.849 33.3352 374.281 33.0739 372.713 33.0739C367.355 33.0739 363.173 36.2102 361.343 43.267H360.821V33.7273H343.309V83.9091Z" />
<path d="M35.1534 173.955C39.956 173.955 44.2358 169.903 44.3011 164.807C44.2358 159.841 39.956 155.79 35.1534 155.79C30.0895 155.79 25.9403 159.841 26.0057 164.807C25.9403 169.903 30.0895 173.955 35.1534 173.955Z" />
<path d="M84.0284 122.727H75.4034V110.705H57.3693V122.727H50.9659V135.795H57.3693V158.469C57.2386 168.989 63.7401 174.314 76.1875 173.628C80.2713 173.399 83.3097 172.55 84.9432 172.06L82.3295 159.384C81.6435 159.547 79.8793 159.906 78.8011 159.906C76.4489 159.906 75.4034 158.861 75.4034 156.77V135.795H84.0284V122.727Z" />
<path d="M115.025 173.824C131.36 173.824 141.03 163.369 141.03 147.949C141.03 132.528 131.36 122.074 115.025 122.074C98.6893 122.074 89.0188 132.528 89.0188 147.949C89.0188 163.369 98.6893 173.824 115.025 173.824ZM115.155 160.494C110.32 160.494 107.445 155.692 107.445 147.818C107.445 139.945 110.32 135.142 115.155 135.142C119.729 135.142 122.604 139.945 122.604 147.818C122.604 155.692 119.729 160.494 115.155 160.494Z" />
<path d="M166.513 173.562C173.57 173.562 178.405 169.773 180.496 164.676H180.888V172.909H198.792V106H180.757V131.483H180.496C178.536 126.386 173.831 122.074 166.382 122.074C156.451 122.074 146.78 129.653 146.78 147.818C146.78 165.199 155.797 173.562 166.513 173.562ZM173.178 159.71C168.212 159.71 165.337 155.267 165.337 147.818C165.337 140.369 168.212 135.926 173.178 135.926C178.144 135.926 181.15 140.369 181.15 147.818C181.15 155.136 178.144 159.71 173.178 159.71Z" />
<path d="M231.821 173.824C248.157 173.824 257.827 163.369 257.827 147.949C257.827 132.528 248.157 122.074 231.821 122.074C215.486 122.074 205.816 132.528 205.816 147.949C205.816 163.369 215.486 173.824 231.821 173.824ZM231.952 160.494C227.117 160.494 224.242 155.692 224.242 147.818C224.242 139.945 227.117 135.142 231.952 135.142C236.526 135.142 239.401 139.945 239.401 147.818C239.401 155.692 236.526 160.494 231.952 160.494Z" />
<path d="M264.844 109.894H271.523V127.909H276.083V109.894H282.763V106.091H264.844V109.894Z" />
<path d="M285.714 106.091V127.909H290.188V113.655H290.369L296.016 127.803H299.062L304.709 113.708H304.89V127.909H309.364V106.091H303.675L297.667 120.75H297.411L291.403 106.091H285.714Z" />
</svg>
